<svg width="300" height="262" viewBox="0 0 300 262" fill="none" xmlns="http://www.w3.org/2000/svg">
<g clip-path="url(#clip0_1323_280)">
<path d="M192.663 238.753L191.927 228.515C187.106 226.105 181.768 224.908 176.379 225.028C183.961 230.889 183.354 242.602 188.605 250.619C190.262 253.107 192.457 255.19 195.028 256.713C197.6 258.237 200.481 259.163 203.459 259.422L209.769 263.052C210.491 258.281 210.17 253.411 208.828 248.776C207.486 244.141 205.155 239.852 201.997 236.205C200.204 234.176 198.163 232.381 195.923 230.863C194.543 234.823 192.663 238.753 192.663 238.753Z" fill="#F2F2F2"/>
<path d="M63.1001 153.935V154.133H63.2381C63.1881 154.07 63.142 154.004 63.1001 153.935ZM64.1625 69.9425C54.5197 82.4831 49.3001 97.8633 49.3184 113.683C49.3206 116.092 49.4386 118.467 49.6725 120.808C49.7085 121.21 49.7504 121.612 49.8046 122.008C51.1444 133.65 55.327 144.783 61.9837 154.427C62.2416 154.806 62.5057 155.178 62.77 155.55C65.6357 159.568 68.9072 163.28 72.5328 166.627C101.72 193.579 147.23 191.766 174.182 162.579C174.596 162.141 174.992 161.696 175.382 161.252C186.414 148.759 192.76 132.819 193.335 116.163C193.91 99.5057 188.678 83.1669 178.534 69.9425C178.228 69.5404 177.916 69.1382 177.592 68.7421C176.881 67.8477 176.145 66.9713 175.382 66.113C174.992 65.6688 174.596 65.2246 174.182 64.7864C167.453 57.488 159.283 51.664 150.19 47.6823C141.096 43.7006 131.275 41.6475 121.348 41.6528C120.658 41.6528 119.974 41.6649 119.289 41.6829C118.833 41.6948 118.377 41.7128 117.921 41.7369C107.703 42.2219 97.7059 44.8818 88.5979 49.5387C79.49 54.1957 71.4806 60.7426 65.1048 68.742C64.7806 69.1382 64.4688 69.5404 64.1625 69.9425L64.1625 69.9425ZM63.2381 154.133C63.1881 154.07 63.142 154.004 63.1001 153.935V154.133H63.2381Z" fill="white"/>
<path d="M62.5966 153.197L62.8006 152.783L78.0829 122.008V122.002L78.6773 120.807V120.801L103.924 69.9423V69.9363L104.518 68.7418L104.524 68.7358L117.309 42.9671L117.921 41.7366C118.378 41.7126 118.834 41.6946 119.29 41.6826L118.684 42.9071L105.863 68.7358V68.7418L105.268 69.9363V69.9423L79.3614 122.128L79.3555 122.134L64.0732 152.933L63.473 154.133L63.3768 154.331L62.7707 155.55C62.5064 155.177 62.2423 154.805 61.9844 154.427L62.5966 153.197Z" fill="#3F3D56"/>
<path d="M79.1042 120.808V122.008H49.806C49.7518 121.612 49.7099 121.21 49.6738 120.808H79.1042Z" fill="#3F3D56"/>
<path d="M124.635 130.172V128.972H153.933C153.987 129.368 154.029 129.77 154.065 130.172H124.635Z" fill="#3F3D56"/>
<path d="M149.141 125.989H150.341V155.287C149.945 155.342 149.543 155.384 149.141 155.42V125.989Z" fill="#3F3D56"/>
<path d="M178.535 69.9423C178.229 69.5401 177.917 69.1379 177.593 68.7418H175.384V66.1127C174.994 65.6685 174.598 65.2243 174.184 64.7861V68.7418H65.1063C64.7822 69.1379 64.4703 69.5401 64.1641 69.9423H174.184V162.579C174.598 162.14 174.994 161.696 175.384 161.252V69.9423H178.535Z" fill="#3F3D56"/>
<path d="M174.783 152.932H63.0996V154.133H174.783V152.932Z" fill="#3F3D56"/>
<path d="M63.1001 153.935V154.133H63.2381C63.1881 154.07 63.142 154.004 63.1001 153.935ZM64.1625 69.9425C54.5197 82.4831 49.3001 97.8633 49.3184 113.683C49.3206 116.092 49.4386 118.467 49.6725 120.808C49.7085 121.21 49.7504 121.612 49.8046 122.008C51.1444 133.65 55.327 144.783 61.9837 154.427C62.2416 154.806 62.5057 155.178 62.77 155.55C65.6357 159.568 68.9072 163.28 72.5328 166.627C101.72 193.579 147.23 191.766 174.182 162.579C174.596 162.141 174.992 161.696 175.382 161.252C186.414 148.759 192.76 132.819 193.335 116.163C193.91 99.5057 188.678 83.1669 178.534 69.9425C178.228 69.5404 177.916 69.1382 177.592 68.7421C176.881 67.8477 176.145 66.9713 175.382 66.113C174.992 65.6688 174.596 65.2246 174.182 64.7864C167.453 57.488 159.283 51.664 150.19 47.6823C141.096 43.7006 131.275 41.6475 121.348 41.6528C120.658 41.6528 119.974 41.6649 119.289 41.6829C118.833 41.6948 118.377 41.7128 117.921 41.7369C107.703 42.2219 97.7059 44.8818 88.5979 49.5387C79.49 54.1957 71.4806 60.7426 65.1048 68.742C64.7806 69.1382 64.4688 69.5404 64.1625 69.9425L64.1625 69.9425ZM51.011 122.008C50.9571 121.612 50.9152 121.21 50.873 120.808C49.0433 102.576 54.3487 84.3452 65.6752 69.9425C65.9932 69.5403 66.3115 69.1382 66.6415 68.742C72.845 61.1752 80.5509 54.9777 89.272 50.5412C97.9931 46.1048 107.54 43.5258 117.309 42.9674C117.765 42.9433 118.221 42.9193 118.683 42.9073C119.565 42.8713 120.454 42.8533 121.348 42.8533C131.33 42.8474 141.2 44.9575 150.307 49.0443C159.414 53.1312 167.551 59.102 174.182 66.5631C174.596 67.0193 174.998 67.4755 175.382 67.9437C175.617 68.2078 175.839 68.4719 176.055 68.742C176.385 69.1382 176.703 69.5403 177.021 69.9425C187.114 82.7562 192.464 98.666 192.166 114.974C191.867 131.283 185.937 146.986 175.382 159.421C174.998 159.89 174.596 160.346 174.182 160.802C170.527 164.908 166.406 168.574 161.903 171.726C129.892 194.13 85.7799 186.342 63.3761 154.331C63.3281 154.265 63.28 154.199 63.2381 154.133C63.1881 154.07 63.142 154.004 63.1 153.935C62.926 153.689 62.758 153.443 62.5959 153.197C56.2908 143.879 52.3176 133.182 51.011 122.008L51.011 122.008ZM63.2381 154.133C63.1881 154.07 63.142 154.004 63.1 153.935V154.133H63.2381Z" fill="#CCCCCC"/>
<path d="M204.306 191.048H132.443C131.564 191.047 130.722 190.697 130.101 190.076C129.479 189.455 129.13 188.612 129.129 187.733V152.718C129.13 151.839 129.479 150.997 130.101 150.376C130.722 149.754 131.564 149.405 132.443 149.404H204.306C205.184 149.405 206.027 149.754 206.648 150.376C207.269 150.997 207.619 151.839 207.62 152.718V187.733C207.619 188.612 207.269 189.455 206.648 190.076C206.027 190.697 205.184 191.047 204.306 191.048V191.048Z" fill="#CACACA"/>
<path d="M172.652 188.23C156.913 188.23 140.502 188.08 134.379 187.982C133.574 187.965 132.807 187.635 132.242 187.06C131.677 186.486 131.359 185.713 131.355 184.907V152.72C131.356 152.432 131.47 152.155 131.674 151.951C131.878 151.747 132.154 151.631 132.443 151.63H204.303C204.592 151.631 204.868 151.745 205.073 151.949C205.277 152.153 205.392 152.429 205.393 152.718V174.556C205.38 178.12 203.97 181.538 201.466 184.075C198.961 186.612 195.563 188.067 191.998 188.127C186.292 188.201 179.534 188.23 172.652 188.23Z" fill="#E4E4E4"/>
<path d="M196.886 171.752H138.415C138.036 171.751 137.666 171.634 137.356 171.415C137.046 171.197 136.811 170.888 136.684 170.531L130.066 151.964C129.967 151.687 129.936 151.39 129.976 151.099C130.016 150.807 130.125 150.53 130.294 150.289C130.464 150.048 130.688 149.852 130.949 149.716C131.21 149.581 131.5 149.51 131.794 149.509L204.884 149.407H204.887C205.191 149.407 205.49 149.483 205.758 149.627C206.026 149.771 206.254 149.979 206.421 150.233C206.589 150.487 206.69 150.779 206.717 151.082C206.745 151.385 206.696 151.69 206.576 151.969L206.476 151.926L206.576 151.969L198.575 170.638C198.434 170.969 198.198 171.251 197.898 171.449C197.598 171.647 197.246 171.752 196.886 171.752V171.752Z" fill="#CACACA"/>
<path d="M155.363 184.62H135.201C134.704 184.619 134.228 184.422 133.878 184.07C133.527 183.719 133.33 183.243 133.33 182.747C133.33 182.25 133.527 181.774 133.878 181.423C134.228 181.072 134.704 180.874 135.201 180.874H155.363C155.859 180.874 156.335 181.072 156.686 181.423C157.037 181.774 157.234 182.25 157.234 182.747C157.234 183.243 157.037 183.719 156.686 184.07C156.335 184.422 155.859 184.619 155.363 184.62V184.62Z" fill="#CACACA"/>
<path d="M168.266 176.331C170.795 176.331 172.845 174.281 172.845 171.752C172.845 169.223 170.795 167.173 168.266 167.173C165.737 167.173 163.688 169.223 163.688 171.752C163.688 174.281 165.737 176.331 168.266 176.331Z" fill="#3F3D56"/>
<path d="M23.1457 9.46737C34.3959 1.54455 48.3327 -1.58462 61.8901 0.768215C75.4475 3.12105 87.5149 10.7632 95.4378 22.0134C111.936 45.4408 128.491 106.873 116.805 142.462C81.9482 105.643 28.3979 101.817 10.5997 81.7594C-8.41834 60.3268 -0.281677 25.9658 23.1457 9.46737Z" fill="#6C63FF"/>
<path d="M53.7233 62.5173C63.0682 62.5173 70.6438 54.9417 70.6438 45.5968C70.6438 36.2518 63.0682 28.6763 53.7233 28.6763C44.3783 28.6763 36.8027 36.2518 36.8027 45.5968C36.8027 54.9417 44.3783 62.5173 53.7233 62.5173Z" fill="white"/>
<path d="M131.108 160.889C137.229 160.889 142.191 155.927 142.191 149.807C142.191 143.686 137.229 138.724 131.108 138.724C124.987 138.724 120.025 143.686 120.025 149.807C120.025 155.927 124.987 160.889 131.108 160.889Z" fill="#6C63FF"/>
<path opacity="0.2" d="M35.6209 41.6927C34.5005 43.6115 33.769 45.7323 33.4682 47.9338C33.1675 50.1354 33.3032 52.3746 33.8679 54.5237C34.4325 56.6727 35.4148 58.6895 36.7589 60.4589C38.1029 62.2283 39.7823 63.7157 41.7011 64.8361C43.62 65.9565 45.7407 66.6879 47.9423 66.9887C50.1438 67.2895 52.383 67.1537 54.5321 66.5891C56.6812 66.0245 58.698 65.0421 60.4674 63.6981C62.2368 62.3541 63.7241 60.6747 64.8445 58.7558C61.8243 61.4054 57.9597 62.8936 53.9425 62.9542C49.9253 63.0147 46.0176 61.6436 42.9189 59.0863C39.8202 56.529 37.7328 52.9523 37.0302 48.9966C36.3276 45.0408 37.0557 40.9641 39.0843 37.4961C37.711 38.699 36.5414 40.1161 35.6209 41.6927V41.6927Z" fill="#231F20"/>
<path opacity="0.2" d="M10.5674 81.8393C28.3656 101.897 81.916 105.723 116.773 142.541C117.861 139.174 118.698 135.731 119.278 132.24C84.4387 98.7691 33.8695 94.5391 16.6732 75.1596C1.28226 57.8145 3.6781 32.0035 17.5683 14.0439C-1.48189 31.7028 -6.86077 62.1984 10.5674 81.8393Z" fill="#231F20"/>
<path d="M231.796 152.707L224.61 150.519C221.482 154.29 218.889 165.215 218.889 165.215L209.054 181.195C208.528 181.445 208.077 181.829 207.746 182.309C207.415 182.789 207.217 183.347 207.171 183.928C207.124 184.508 207.232 185.091 207.482 185.617C207.733 186.143 208.117 186.594 208.597 186.924C209.077 187.254 209.636 187.452 210.217 187.497C210.798 187.543 211.38 187.435 211.906 187.184C212.432 186.933 212.882 186.548 213.211 186.067C213.541 185.587 213.738 185.028 213.783 184.447L228.667 166.377L231.796 152.707Z" fill="#FFB6B6"/>
<path d="M231.66 154.451L232.988 143.574L230.011 138.603C229.423 137.629 228.575 136.839 227.561 136.322C226.548 135.805 225.41 135.582 224.277 135.678C222.741 135.818 221.316 136.536 220.29 137.687C219.263 138.838 218.712 140.335 218.748 141.877C218.859 146.552 219.596 152.464 222.47 154.08L222.499 154.096L231.66 154.451Z" fill="#6C63FF"/>
<path d="M251.958 252.74L247.65 254.82L237.576 239.189L243.936 236.12L251.958 252.74Z" fill="#FFB6B6"/>
<path d="M254.28 257.162L241.029 263.558L240.948 263.39C240.288 262.022 240.198 260.448 240.699 259.014C241.199 257.58 242.248 256.404 243.616 255.743L243.616 255.743L245.15 252.738L250.553 252.395L251.709 251.836L254.28 257.162Z" fill="#2F2E41"/>
<path d="M219.883 258.567L215.099 258.566L212.822 240.111L219.884 240.111L219.883 258.567Z" fill="#FFB6B6"/>
<path d="M220.052 263.558L205.338 263.557V263.371C205.338 261.852 205.941 260.396 207.015 259.322C208.089 258.248 209.546 257.645 211.065 257.644H211.065L213.753 255.605L218.767 257.645L220.052 257.645L220.052 263.558Z" fill="#2F2E41"/>
<path d="M215.142 172.973L209.659 210.782L211.151 215.757L209.193 219.281L212.069 245.801L210.902 248.371L214.163 250.382H220.798L221.151 222.368L222.79 218.255V215.988L226.127 198.906L226.896 225.498L227.962 227.553C231.93 236.556 237.276 239.504 241.055 246.234L247.691 242.64L247.552 239.959C248.885 239.284 245.55 237.311 245.23 235.852L244.649 233.238L240.778 225.22L240.63 222.396L241.69 203.189L241.191 177.326L232.487 170.669L215.142 172.973Z" fill="#2F2E41"/>
<path d="M223.756 127.112C228.518 127.112 232.378 123.252 232.378 118.491C232.378 113.729 228.518 109.869 223.756 109.869C218.995 109.869 215.135 113.729 215.135 118.491C215.135 123.252 218.995 127.112 223.756 127.112Z" fill="#FFB6B6"/>
<path d="M211.018 189.283L210.893 189.239L212.561 183.816C212.342 183.117 212.3 182.375 212.44 181.656C212.579 180.937 212.894 180.264 213.358 179.697C213.088 179.23 211.976 177.024 213.787 175.15C213.679 174.603 213.134 171.369 215.036 169.788C215.036 169.788 218.725 141.824 220.795 134.437C220.855 133.897 220.37 129.485 223.153 129.312C224.621 129.221 226.824 129.081 230.13 128.868C230.557 128.837 230.808 129.559 231.187 130.733C231.444 131.527 230.123 132.612 230.442 132.594L230.465 132.592L230.487 132.598C233.571 133.425 236.276 135.289 238.148 137.876C240.02 140.462 240.944 143.615 240.765 146.803L239.782 163.512C239.931 164.184 243.061 183.238 242.243 185.283C241.779 186.443 242.57 187.166 243.148 187.694C243.446 187.966 243.661 188.162 243.631 188.377C243.619 188.436 243.592 188.491 243.553 188.537C243.514 188.583 243.464 188.618 243.408 188.64C242.885 188.901 243.174 190.694 243.479 191.763L243.51 191.872L243.409 191.924C243.292 191.983 233.937 187.693 222.571 187.692C218.287 187.692 215.811 190.955 211.018 189.283Z" fill="#6C63FF"/>
<path d="M230.589 123.791C230.499 123.745 230.421 123.681 230.357 123.602C230.294 123.524 230.249 123.433 230.223 123.335L230.1 122.835L230.478 123.228C230.68 123.061 230.835 122.843 230.926 122.597C231.017 122.351 231.042 122.085 230.997 121.827C230.953 121.568 230.841 121.326 230.673 121.124C230.505 120.922 230.287 120.768 230.041 120.678C229.875 120.622 229.704 120.581 229.531 120.554C229.35 120.525 229.171 120.482 228.997 120.425C228.589 120.249 228.237 119.964 227.98 119.602C227.722 119.24 227.568 118.814 227.535 118.371C227.479 117.59 227.566 116.805 227.791 116.054C223.987 116.639 220.108 116.522 216.346 115.71C215.766 115.588 215.211 115.37 214.703 115.064C213.774 114.513 213 113.735 212.455 112.802C212.383 112.677 212.353 112.531 212.37 112.387C212.386 112.243 212.448 112.108 212.547 112.002C212.616 111.928 212.699 111.869 212.791 111.828C212.884 111.788 212.983 111.766 213.084 111.766L212.947 111.393C212.904 111.276 212.892 111.151 212.914 111.028C212.935 110.906 212.989 110.792 213.069 110.697C213.149 110.602 213.252 110.53 213.369 110.488C213.486 110.446 213.612 110.436 213.734 110.459L214.222 110.55L214.175 110.226C214.158 110.105 214.172 109.982 214.217 109.868C214.262 109.755 214.335 109.655 214.43 109.578C214.525 109.502 214.639 109.451 214.759 109.432C214.88 109.413 215.003 109.425 215.118 109.468C215.222 109.508 215.334 109.524 215.446 109.516C215.557 109.508 215.666 109.476 215.764 109.421C215.862 109.367 215.947 109.293 216.013 109.203C216.079 109.113 216.126 109.009 216.148 108.9L216.316 108.085L216.333 108.042C217.158 106.666 218.744 105.667 220.684 105.299C222.414 104.971 224.18 105.137 225.888 105.297C226.613 105.311 227.325 105.491 227.969 105.822C228.261 105.991 228.5 106.237 228.661 106.533C228.821 106.829 228.895 107.164 228.876 107.501C230.558 106.984 232.363 108.014 233.256 109.312C234.317 110.857 234.488 112.794 234.519 114.309C234.592 117.89 233.854 120.82 232.326 123.018C232.108 123.391 231.776 123.685 231.38 123.859C231.279 123.893 231.174 123.91 231.067 123.91C230.9 123.91 230.736 123.87 230.589 123.791V123.791Z" fill="#2F2E41"/>
<path d="M230.899 157.737L224.571 153.69C220.541 156.477 215.095 166.296 215.095 166.296L201.312 179.03C200.738 179.128 200.2 179.376 199.752 179.749C199.304 180.121 198.962 180.605 198.761 181.152C198.56 181.699 198.506 182.289 198.605 182.863C198.704 183.437 198.953 183.975 199.326 184.422C199.699 184.87 200.184 185.211 200.731 185.412C201.277 185.612 201.868 185.665 202.442 185.565C203.016 185.466 203.553 185.216 204 184.843C204.447 184.469 204.788 183.984 204.988 183.437L224.196 170.055L230.899 157.737Z" fill="#FFB6B6"/>
<path d="M230.296 159.379L234.511 149.264L232.986 143.674C232.683 142.577 232.079 141.588 231.243 140.816C230.407 140.045 229.371 139.523 228.254 139.31V139.31C226.738 139.03 225.172 139.337 223.873 140.168C222.574 140.999 221.639 142.292 221.257 143.786C220.103 148.318 219.216 154.21 221.548 156.541L221.571 156.565L230.296 159.379Z" fill="#6C63FF"/>
</g>
<defs>
<clipPath id="clip0_1323_280">
<rect width="300" height="264.415" fill="white"/>
</clipPath>
</defs>
</svg>
