<svg width="300" height="209" viewBox="0 0 300 209" fill="none" xmlns="http://www.w3.org/2000/svg">
<g clip-path="url(#clip0_1446_1774)">
<path d="M247.919 178.043C249.133 168.285 255.18 158.671 264.485 155.496C260.816 165.539 260.816 176.557 264.488 186.599C265.918 190.467 267.911 194.62 266.566 198.518C265.729 200.944 263.682 202.8 261.393 203.96C259.105 205.12 256.565 205.673 254.057 206.215L253.563 206.624C249.582 197.633 246.706 187.8 247.919 178.043Z" fill="#F0F0F0"/>
<path d="M264.578 155.681C259.159 161.753 255.791 169.379 254.952 177.474C254.741 179.213 254.805 180.975 255.142 182.695C255.524 184.359 256.346 185.891 257.52 187.131C258.593 188.309 259.826 189.389 260.593 190.807C260.975 191.539 261.197 192.343 261.247 193.167C261.296 193.991 261.171 194.816 260.879 195.588C260.202 197.53 258.867 199.114 257.508 200.617C255.998 202.285 254.404 203.995 253.763 206.207C253.685 206.475 253.274 206.339 253.351 206.071C254.468 202.222 258.204 200.036 259.986 196.569C260.817 194.951 261.166 193.073 260.387 191.366C259.705 189.872 258.435 188.757 257.339 187.573C256.175 186.381 255.321 184.922 254.852 183.323C254.428 181.626 254.296 179.869 254.462 178.128C254.772 174.203 255.698 170.35 257.205 166.712C258.903 162.551 261.299 158.71 264.291 155.356C264.477 155.149 264.762 155.475 264.578 155.681H264.578Z" fill="white"/>
<path d="M255.068 174.851C253.729 174.526 252.549 173.735 251.739 172.621C250.929 171.506 250.541 170.14 250.646 168.765C250.668 168.488 251.101 168.509 251.079 168.787C250.979 170.066 251.34 171.339 252.096 172.376C252.853 173.412 253.955 174.144 255.204 174.44C255.475 174.504 255.337 174.915 255.068 174.851V174.851Z" fill="white"/>
<path d="M256.898 186.605C259.317 185.161 261.102 182.858 261.898 180.156C261.977 179.888 262.389 180.024 262.31 180.292C261.476 183.102 259.613 185.495 257.093 186.992C256.853 187.134 256.659 186.747 256.898 186.605V186.605Z" fill="white"/>
<path d="M259.304 162.961C259.796 163.195 260.339 163.302 260.882 163.275C261.426 163.247 261.955 163.085 262.421 162.803C262.659 162.657 262.852 163.045 262.616 163.19C262.1 163.499 261.516 163.678 260.915 163.71C260.314 163.741 259.714 163.626 259.168 163.372C259.115 163.353 259.071 163.314 259.045 163.263C259.02 163.212 259.015 163.153 259.031 163.099C259.049 163.044 259.088 162.999 259.139 162.973C259.19 162.948 259.25 162.943 259.304 162.961V162.961Z" fill="white"/>
<path d="M292.85 172.924C292.704 173.019 292.557 173.114 292.411 173.213C290.451 174.502 288.599 175.948 286.874 177.536C286.738 177.657 286.603 177.781 286.471 177.906C282.355 181.777 278.993 186.379 276.556 191.478C275.588 193.508 274.777 195.609 274.128 197.762C273.231 200.735 272.496 204.031 270.722 206.463C270.54 206.719 270.342 206.963 270.13 207.194H254.099C254.063 207.176 254.026 207.161 253.99 207.143L253.35 207.172C253.375 207.059 253.404 206.942 253.43 206.829C253.445 206.763 253.463 206.697 253.478 206.631C253.489 206.587 253.5 206.543 253.507 206.503C253.511 206.489 253.514 206.474 253.518 206.463C253.525 206.423 253.536 206.386 253.544 206.35C253.704 205.695 253.87 205.04 254.041 204.385C254.041 204.382 254.041 204.382 254.044 204.378C255.358 199.393 257.098 194.474 259.531 189.975C259.604 189.84 259.677 189.701 259.757 189.566C260.865 187.544 262.136 185.616 263.558 183.801C264.339 182.81 265.171 181.859 266.048 180.952C268.321 178.613 270.947 176.646 273.831 175.122C279.581 172.087 286.237 170.924 292.382 172.778C292.539 172.825 292.693 172.873 292.85 172.924Z" fill="#F0F0F0"/>
<path d="M292.814 173.128C284.831 174.714 277.551 178.774 272.007 184.733C270.791 185.994 269.781 187.44 269.015 189.015C268.319 190.575 268.052 192.292 268.244 193.989C268.391 195.575 268.725 197.181 268.483 198.775C268.348 199.589 268.041 200.365 267.585 201.052C267.128 201.74 266.531 202.323 265.833 202.764C264.123 203.907 262.104 204.368 260.114 204.749C257.904 205.173 255.603 205.578 253.758 206.959C253.535 207.126 253.289 206.769 253.512 206.602C256.72 204.201 261.02 204.705 264.53 203.01C266.168 202.219 267.577 200.929 267.983 199.096C268.338 197.494 267.995 195.838 267.832 194.234C267.621 192.581 267.818 190.901 268.405 189.342C269.089 187.732 270.041 186.25 271.222 184.96C273.833 182.013 276.892 179.494 280.286 177.497C284.146 175.196 288.372 173.572 292.78 172.696C293.053 172.642 293.085 173.074 292.814 173.128V173.128Z" fill="white"/>
<path d="M273.679 182.709C272.806 181.643 272.34 180.301 272.364 178.923C272.389 177.546 272.902 176.221 273.813 175.187C273.998 174.979 274.33 175.256 274.145 175.465C273.295 176.427 272.817 177.66 272.797 178.943C272.777 180.226 273.216 181.474 274.036 182.462C274.213 182.677 273.856 182.922 273.679 182.709V182.709Z" fill="white"/>
<path d="M268.063 193.194C270.864 193.497 273.675 192.734 275.938 191.056C276.162 190.889 276.408 191.246 276.185 191.412C273.827 193.154 270.899 193.943 267.986 193.621C267.708 193.59 267.787 193.164 268.063 193.194V193.194Z" fill="white"/>
<path d="M284.22 175.765C284.472 176.248 284.84 176.66 285.291 176.966C285.742 177.271 286.262 177.46 286.804 177.515C287.082 177.542 287.002 177.968 286.726 177.941C286.128 177.878 285.554 177.669 285.055 177.332C284.556 176.996 284.147 176.542 283.864 176.012C283.833 175.964 283.822 175.906 283.832 175.85C283.842 175.794 283.873 175.744 283.919 175.71C283.966 175.678 284.024 175.665 284.081 175.675C284.137 175.686 284.187 175.718 284.22 175.765Z" fill="white"/>
<path d="M196.144 128.782C196.475 128.439 196.728 128.028 196.883 127.577C197.039 127.126 197.094 126.647 197.044 126.172C196.994 125.698 196.841 125.241 196.595 124.832C196.349 124.423 196.017 124.073 195.621 123.807L198.585 112.6L192.875 114.52L190.936 124.868C190.533 125.563 190.398 126.381 190.558 127.168C190.717 127.955 191.16 128.656 191.802 129.138C192.444 129.62 193.24 129.851 194.04 129.785C194.841 129.719 195.589 129.362 196.144 128.782V128.782Z" fill="#9E616A"/>
<path d="M222.561 204.061L218.583 204.06L216.691 188.72L222.561 188.72L222.561 204.061Z" fill="#9E616A"/>
<path d="M223.574 207.916L210.75 207.915V207.753C210.75 206.429 211.276 205.16 212.212 204.224C213.148 203.288 214.418 202.762 215.741 202.762H215.742L223.574 202.762L223.574 207.916Z" fill="#2F2E41"/>
<path d="M203.744 204.061L199.767 204.06L197.875 188.72L203.745 188.72L203.744 204.061Z" fill="#9E616A"/>
<path d="M204.76 207.916L191.936 207.915V207.753C191.936 206.429 192.462 205.16 193.398 204.224C194.334 203.288 195.603 202.762 196.927 202.762H196.927L204.76 202.762L204.76 207.916Z" fill="#2F2E41"/>
<path d="M201.534 111.631L200.007 112.053C200.007 112.053 196.019 137.908 195.695 151.533C195.37 165.158 196.668 199.545 196.668 199.545H205.102L211.915 141.152L215.159 199.545H224.242C224.242 199.545 230.731 122.985 227.811 116.822C224.891 110.658 201.534 111.631 201.534 111.631Z" fill="#2F2E41"/>
<path d="M213.701 66.0091C217.91 66.0091 221.323 62.5969 221.323 58.3878C221.323 54.1787 217.91 50.7666 213.701 50.7666C209.492 50.7666 206.08 54.1787 206.08 58.3878C206.08 62.5969 209.492 66.0091 213.701 66.0091Z" fill="#9E616A"/>
<path d="M233.001 75.9464L221.172 68.2158L208.914 68.6985L196.992 75.2976L201.534 100.601L199.587 115.2C199.587 115.2 217.105 113.253 220.998 116.173C223.272 117.905 225.953 119.022 228.784 119.417L228.135 94.4376L233.001 75.9464Z" fill="#3F3D56"/>
<path d="M199.263 74.9731L198.037 74.7188L196.992 75.2975C196.992 75.2975 194.072 79.1904 194.072 82.7588C194.072 86.3273 190.504 120.714 190.504 120.714L196.992 123.634L202.183 96.7083L199.263 74.9731Z" fill="#3F3D56"/>
<path d="M220.375 52.7999C220.375 52.7999 222.369 48.9892 217.983 48.6428C217.983 48.6428 214.245 45.2515 210.434 48.0228C210.434 48.0228 208.356 48.0228 207.219 50.3749C207.219 50.3749 205.584 49.7549 205.225 51.4142C205.225 51.4142 204.029 54.8784 205.225 57.9962C206.421 61.114 206.819 61.4604 206.819 61.4604C206.819 61.4604 204.853 54.9238 209.637 54.5774C214.422 54.2309 219.776 51.241 220.174 55.0516C220.573 58.8622 221.173 59.8011 221.173 59.8011C221.173 59.8011 224.96 54.3588 220.375 52.7999Z" fill="#2F2E41"/>
<path d="M121.891 97.6346H27.4883V26.9141H121.891V97.6346Z" fill="white"/>
<path d="M121.891 97.6346H27.4883V26.9141H121.891V97.6346ZM28.4615 27.8873V96.6614H120.917V27.8873H28.4615Z" fill="#E6E6E6"/>
<path d="M74.6606 80.3817C84.5879 80.3817 92.6356 72.334 92.6356 62.4067C92.6356 52.4793 84.5879 44.4316 74.6606 44.4316C64.7332 44.4316 56.6855 52.4793 56.6855 62.4067C56.6855 72.334 64.7332 80.3817 74.6606 80.3817Z" fill="#6C63FF"/>
<path d="M82.1252 60.8972H76.0137V54.7858C76.0137 54.4043 75.8622 54.0386 75.5925 53.7689C75.3228 53.4992 74.957 53.3477 74.5756 53.3477C74.1942 53.3477 73.8284 53.4992 73.5587 53.7689C73.289 54.0386 73.1375 54.4043 73.1375 54.7858V60.8972H67.026C66.6446 60.8972 66.2788 61.0488 66.0091 61.3185C65.7394 61.5881 65.5879 61.9539 65.5879 62.3353C65.5879 62.7167 65.7394 63.0825 66.0091 63.3522C66.2788 63.6219 66.6446 63.7734 67.026 63.7734H73.1375V69.8849C73.1375 70.2663 73.289 70.6321 73.5587 70.9018C73.8284 71.1715 74.1942 71.323 74.5756 71.323C74.957 71.323 75.3228 71.1715 75.5925 70.9018C75.8622 70.6321 76.0137 70.2663 76.0137 69.8849V63.7734H82.1252C82.5066 63.7734 82.8723 63.6219 83.142 63.3522C83.4117 63.0825 83.5632 62.7167 83.5632 62.3353C83.5632 61.9539 83.4117 61.5881 83.142 61.3185C82.8723 61.0488 82.5066 60.8972 82.1252 60.8972Z" fill="white"/>
<path d="M35.2756 26.6189H0V0H35.2756V26.6189Z" fill="white"/>
<path d="M35.2756 26.6189H0V0H35.2756V26.6189ZM0.648813 25.9701H34.6268V0.648813H0.648813V25.9701Z" fill="#E6E6E6"/>
<path d="M30.6224 7.25H4.65234V8.98136H30.6224V7.25Z" fill="#E4E4E4"/>
<path d="M30.6224 12.4434H4.65234V14.1747H30.6224V12.4434Z" fill="#E4E4E4"/>
<path d="M30.6224 17.6377H4.65234V19.3691H30.6224V17.6377Z" fill="#E4E4E4"/>
<path d="M269.821 207.962H234.545V181.343H269.821V207.962Z" fill="white"/>
<path d="M269.821 207.962H234.545V181.343H269.821V207.962ZM235.194 207.313H269.172V181.992H235.194V207.313Z" fill="#E6E6E6"/>
<path d="M265.169 188.593H239.199V190.324H265.169V188.593Z" fill="#E4E4E4"/>
<path d="M265.169 193.787H239.199V195.518H265.169V193.787Z" fill="#E4E4E4"/>
<path d="M265.169 198.98H239.199V200.712H265.169V198.98Z" fill="#E4E4E4"/>
<path d="M248.397 160.199L222.049 136.744L239.748 116.861L266.096 140.316L248.397 160.199Z" fill="white"/>
<path d="M248.397 160.199L222.049 136.744L239.748 116.861L266.096 140.316L248.397 160.199ZM222.965 136.691L248.344 159.283L265.18 140.369L239.801 117.777L222.965 136.691Z" fill="#E6E6E6"/>
<path d="M238.403 125.371L237.252 126.664L256.65 143.931L257.801 142.638L238.403 125.371Z" fill="#E4E4E4"/>
<path d="M234.95 129.25L233.799 130.543L253.197 147.81L254.348 146.517L234.95 129.25Z" fill="#E4E4E4"/>
<path d="M231.497 133.13L230.346 134.423L249.744 151.69L250.895 150.397L231.497 133.13Z" fill="#E4E4E4"/>
<path d="M55.2491 42.1905H15.8965V12.4951H55.2491V42.1905Z" fill="white"/>
<path d="M55.2491 42.1905H15.8965V12.4951H55.2491V42.1905ZM16.6203 41.4667H54.5253V13.2189H16.6203V41.4667Z" fill="#E6E6E6"/>
<path d="M50.0574 20.583H21.0859V22.5145H50.0574V20.583Z" fill="#6C63FF"/>
<path d="M50.0574 26.377H21.0859V28.3084H50.0574V26.377Z" fill="#6C63FF"/>
<path d="M50.0574 32.1709H21.0859V34.1024H50.0574V32.1709Z" fill="#6C63FF"/>
<path d="M157.375 119.929H97.3223V74.6133H157.375V119.929Z" fill="white"/>
<path d="M157.375 119.929H97.3223V74.6133H157.375V119.929ZM98.4268 118.825H156.271V75.7178H98.4268V118.825Z" fill="#E6E6E6"/>
<path d="M149.453 86.9551H105.242V89.9025H149.453V86.9551Z" fill="#6C63FF"/>
<path d="M149.453 95.7969H105.242V98.7443H149.453V95.7969Z" fill="#6C63FF"/>
<path d="M149.453 104.64H105.242V107.587H149.453V104.64Z" fill="#6C63FF"/>
<path d="M299.613 208.266H143.803C143.701 208.265 143.603 208.225 143.531 208.152C143.459 208.08 143.418 207.982 143.418 207.879C143.418 207.777 143.459 207.679 143.531 207.607C143.603 207.534 143.701 207.493 143.803 207.493H299.613C299.716 207.493 299.814 207.534 299.887 207.606C299.959 207.679 300 207.777 300 207.879C300 207.982 299.959 208.08 299.887 208.153C299.814 208.225 299.716 208.266 299.613 208.266Z" fill="#CACACA"/>
<path d="M228.968 128.538C228.736 128.121 228.597 127.659 228.563 127.183C228.529 126.708 228.599 126.23 228.769 125.785C228.94 125.339 229.205 124.937 229.548 124.605C229.891 124.273 230.302 124.021 230.753 123.865L230.772 112.272L235.796 115.597L235.007 126.096C235.218 126.871 235.138 127.696 234.781 128.415C234.425 129.135 233.816 129.698 233.072 129.999C232.328 130.3 231.499 130.318 230.742 130.048C229.986 129.779 229.355 129.242 228.968 128.538V128.538Z" fill="#9E616A"/>
<path d="M229.431 77.2442L231.675 75.0811L233.324 76.271C233.324 76.271 234.946 78.2174 236.244 84.0567C237.541 89.896 236.244 122.012 236.244 122.012L229.107 121.039L230.08 104.17L227.16 89.896L229.431 77.2442Z" fill="#3F3D56"/>
</g>
<defs>
<clipPath id="clip0_1446_1774">
<rect width="300" height="208.265" fill="white"/>
</clipPath>
</defs>
</svg>
